<svg width="256" height="256" viewBox="0 0 256 256" fill="none" xmlns="http://www.w3.org/2000/svg">
<rect width="256" height="256" rx="16" fill="white"/>
<path d="M62.176 197.68C56.1173 197.68 51.3387 196.229 47.84 193.328C44.3413 190.512 42.592 185.776 42.592 179.12C42.592 175.877 42.8053 172.976 43.232 170.416C43.744 167.771 44.2133 164.869 44.64 161.712C45.152 158.555 45.408 154.672 45.408 150.064C45.408 146.309 44.4267 143.365 42.464 141.232C40.5867 139.013 37.5147 137.904 33.248 137.904H27.104V129.968H33.248C37.5147 129.968 40.5867 128.901 42.464 126.768C44.4267 124.549 45.408 121.563 45.408 117.808C45.408 113.115 45.152 109.232 44.64 106.16C44.2133 103.003 43.744 100.101 43.232 97.456C42.8053 94.8107 42.592 91.9093 42.592 88.752C42.592 82.096 44.3413 77.36 47.84 74.544C51.3387 71.6427 56.1173 70.192 62.176 70.192H73.952V78.128H62.688C59.0187 78.128 56.2027 78.9813 54.24 80.688C52.2773 82.3947 51.296 85.296 51.296 89.392C51.296 93.1467 51.5093 96.3467 51.936 98.992C52.448 101.637 52.9173 104.283 53.344 106.928C53.856 109.488 54.112 112.688 54.112 116.528C54.112 120.965 53.1307 124.635 51.168 127.536C49.2907 130.437 46.7733 132.485 43.616 133.68V134.192C46.7733 135.301 49.2907 137.307 51.168 140.208C53.1307 143.109 54.112 146.821 54.112 151.344C54.112 155.099 53.856 158.299 53.344 160.944C52.9173 163.589 52.448 166.235 51.936 168.88C51.5093 171.44 51.296 174.64 51.296 178.48C51.296 182.576 52.2773 185.477 54.24 187.184C56.2027 188.891 59.0187 189.744 62.688 189.744H73.952V197.68H62.176ZM127.15 175.536C121.262 175.536 115.971 174.299 111.278 171.824C106.67 169.264 103.043 165.467 100.398 160.432C97.7527 155.397 96.43 149.04 96.43 141.36V84.4H105.39V141.488C105.39 149.765 107.395 156.165 111.406 160.688C115.502 165.125 120.793 167.344 127.278 167.344C133.763 167.344 138.969 165.125 142.894 160.688C146.905 156.165 148.91 149.765 148.91 141.488V84.4H157.87V141.36C157.87 149.04 156.547 155.397 153.902 160.432C151.257 165.467 147.587 169.264 142.894 171.824C138.286 174.299 133.038 175.536 127.15 175.536ZM180.348 197.68V189.744H191.612C195.281 189.744 198.097 188.891 200.06 187.184C202.023 185.477 203.004 182.576 203.004 178.48C203.004 174.64 202.748 171.44 202.236 168.88C201.809 166.235 201.34 163.589 200.828 160.944C200.401 158.299 200.188 155.099 200.188 151.344C200.188 146.821 201.127 143.109 203.004 140.208C204.967 137.307 207.527 135.301 210.684 134.192V133.68C207.527 132.485 204.967 130.437 203.004 127.536C201.127 124.635 200.188 120.965 200.188 116.528C200.188 112.688 200.401 109.488 200.828 106.928C201.34 104.283 201.809 101.637 202.236 98.992C202.748 96.3467 203.004 93.1467 203.004 89.392C203.004 85.296 202.023 82.3947 200.06 80.688C198.097 78.9813 195.281 78.128 191.612 78.128H180.348V70.192H192.124C198.183 70.192 202.961 71.6427 206.46 74.544C209.959 77.36 211.708 82.096 211.708 88.752C211.708 91.9093 211.452 94.8107 210.94 97.456C210.513 100.101 210.044 103.003 209.532 106.16C209.105 109.232 208.892 113.115 208.892 117.808C208.892 121.563 209.873 124.549 211.836 126.768C213.799 128.901 216.871 129.968 221.052 129.968H227.196V137.904H221.052C216.871 137.904 213.799 139.013 211.836 141.232C209.873 143.365 208.892 146.309 208.892 150.064C208.892 154.672 209.105 158.555 209.532 161.712C210.044 164.869 210.513 167.771 210.94 170.416C211.452 172.976 211.708 175.877 211.708 179.12C211.708 185.776 209.959 190.512 206.46 193.328C202.961 196.229 198.183 197.68 192.124 197.68H180.348Z" fill="black"/>
</svg>
